P3
# CREATOR: GIMP PNM Filter Version 1.1
4 4
255
247
247
247
232
232
232
35
35
35
226
226
226
231
231
231
231
231
231
231
231
231
231
231
231
226
226
226
22
22
22
231
231
231
57
57
57
231
231
231
217
217
217
231
231
231
182
182
182
