<?xml version="1.0" standalone="no" ?>
<!DOCTYPE svg PUBLIC "-//W3C//DTD SVG 1.1//EN" "http://www.w3.org/Graphics/SVG/1.1/DTD/svg11.dtd">
<svg width="1000px" height="1000px" xmlns="http://www.w3.org/2000/svg" version="1.1" >
	<circle cx="563.585" cy="1.25126" r="5" fill="rgb(255,0,0)" />
	<circle cx="808.741" cy="193.304" r="5" fill="rgb(255,0,0)" />
	<circle cx="479.873" cy="585.009" r="5" fill="rgb(255,0,0)" />
	<circle cx="895.962" cy="350.291" r="5" fill="rgb(255,0,0)" />
	<circle cx="746.605" cy="822.84" r="5" fill="rgb(255,0,0)" />
	<circle cx="858.943" cy="174.108" r="5" fill="rgb(255,0,0)" />
	<circle cx="513.535" cy="710.501" r="5" fill="rgb(255,0,0)" />
	<circle cx="14.9846" cy="303.995" r="5" fill="rgb(255,0,0)" />
	<circle cx="364.452" cy="91.4029" r="5" fill="rgb(255,0,0)" />
	<circle cx="165.899" cy="147.313" r="5" fill="rgb(255,0,0)" />
	<line x1="563.585" y1="1.25126" x2="808.741" y2="193.304" stroke-width="1" stroke="rgb(0,0,255)" />
	<line x1="563.585" y1="1.25126" x2="479.873" y2="585.009" stroke-width="1" stroke="rgb(0,0,255)" />
	<line x1="563.585" y1="1.25126" x2="895.962" y2="350.291" stroke-width="1" stroke="rgb(0,0,255)" />
	<line x1="563.585" y1="1.25126" x2="746.605" y2="822.84" stroke-width="1" stroke="rgb(0,0,255)" />
	<line x1="563.585" y1="1.25126" x2="858.943" y2="174.108" stroke-width="1" stroke="rgb(0,0,255)" />
	<line x1="563.585" y1="1.25126" x2="513.535" y2="710.501" stroke-width="1" stroke="rgb(0,0,255)" />
	<line x1="563.585" y1="1.25126" x2="14.9846" y2="303.995" stroke-width="1" stroke="rgb(0,0,255)" />
	<line x1="563.585" y1="1.25126" x2="364.452" y2="91.4029" stroke-width="1" stroke="rgb(0,0,255)" />
	<line x1="563.585" y1="1.25126" x2="165.899" y2="147.313" stroke-width="1" stroke="rgb(0,0,255)" />
	<line x1="808.741" y1="193.304" x2="479.873" y2="585.009" stroke-width="1" stroke="rgb(0,0,255)" />
	<line x1="808.741" y1="193.304" x2="895.962" y2="350.291" stroke-width="1" stroke="rgb(0,0,255)" />
	<line x1="808.741" y1="193.304" x2="746.605" y2="822.84" stroke-width="1" stroke="rgb(0,0,255)" />
	<line x1="808.741" y1="193.304" x2="858.943" y2="174.108" stroke-width="1" stroke="rgb(0,0,255)" />
	<line x1="808.741" y1="193.304" x2="513.535" y2="710.501" stroke-width="1" stroke="rgb(0,0,255)" />
	<line x1="808.741" y1="193.304" x2="14.9846" y2="303.995" stroke-width="1" stroke="rgb(0,0,255)" />
	<line x1="808.741" y1="193.304" x2="364.452" y2="91.4029" stroke-width="1" stroke="rgb(0,0,255)" />
	<line x1="808.741" y1="193.304" x2="165.899" y2="147.313" stroke-width="1" stroke="rgb(0,0,255)" />
	<line x1="479.873" y1="585.009" x2="895.962" y2="350.291" stroke-width="1" stroke="rgb(0,0,255)" />
	<line x1="479.873" y1="585.009" x2="746.605" y2="822.84" stroke-width="1" stroke="rgb(0,0,255)" />
	<line x1="479.873" y1="585.009" x2="858.943" y2="174.108" stroke-width="1" stroke="rgb(0,0,255)" />
	<line x1="479.873" y1="585.009" x2="513.535" y2="710.501" stroke-width="1" stroke="rgb(0,0,255)" />
	<line x1="479.873" y1="585.009" x2="14.9846" y2="303.995" stroke-width="1" stroke="rgb(0,0,255)" />
	<line x1="479.873" y1="585.009" x2="364.452" y2="91.4029" stroke-width="1" stroke="rgb(0,0,255)" />
	<line x1="479.873" y1="585.009" x2="165.899" y2="147.313" stroke-width="1" stroke="rgb(0,0,255)" />
	<line x1="895.962" y1="350.291" x2="746.605" y2="822.84" stroke-width="1" stroke="rgb(0,0,255)" />
	<line x1="895.962" y1="350.291" x2="858.943" y2="174.108" stroke-width="1" stroke="rgb(0,0,255)" />
	<line x1="895.962" y1="350.291" x2="513.535" y2="710.501" stroke-width="1" stroke="rgb(0,0,255)" />
	<line x1="895.962" y1="350.291" x2="14.9846" y2="303.995" stroke-width="1" stroke="rgb(0,0,255)" />
	<line x1="895.962" y1="350.291" x2="364.452" y2="91.4029" stroke-width="1" stroke="rgb(0,0,255)" />
	<line x1="895.962" y1="350.291" x2="165.899" y2="147.313" stroke-width="1" stroke="rgb(0,0,255)" />
	<line x1="746.605" y1="822.84" x2="858.943" y2="174.108" stroke-width="1" stroke="rgb(0,0,255)" />
	<line x1="746.605" y1="822.84" x2="513.535" y2="710.501" stroke-width="1" stroke="rgb(0,0,255)" />
	<line x1="746.605" y1="822.84" x2="14.9846" y2="303.995" stroke-width="1" stroke="rgb(0,0,255)" />
	<line x1="746.605" y1="822.84" x2="364.452" y2="91.4029" stroke-width="1" stroke="rgb(0,0,255)" />
	<line x1="746.605" y1="822.84" x2="165.899" y2="147.313" stroke-width="1" stroke="rgb(0,0,255)" />
	<line x1="858.943" y1="174.108" x2="513.535" y2="710.501" stroke-width="1" stroke="rgb(0,0,255)" />
	<line x1="858.943" y1="174.108" x2="14.9846" y2="303.995" stroke-width="1" stroke="rgb(0,0,255)" />
	<line x1="858.943" y1="174.108" x2="364.452" y2="91.4029" stroke-width="1" stroke="rgb(0,0,255)" />
	<line x1="858.943" y1="174.108" x2="165.899" y2="147.313" stroke-width="1" stroke="rgb(0,0,255)" />
	<line x1="513.535" y1="710.501" x2="14.9846" y2="303.995" stroke-width="1" stroke="rgb(0,0,255)" />
	<line x1="513.535" y1="710.501" x2="364.452" y2="91.4029" stroke-width="1" stroke="rgb(0,0,255)" />
	<line x1="513.535" y1="710.501" x2="165.899" y2="147.313" stroke-width="1" stroke="rgb(0,0,255)" />
	<line x1="14.9846" y1="303.995" x2="364.452" y2="91.4029" stroke-width="1" stroke="rgb(0,0,255)" />
	<line x1="14.9846" y1="303.995" x2="165.899" y2="147.313" stroke-width="1" stroke="rgb(0,0,255)" />
	<line x1="364.452" y1="91.4029" x2="165.899" y2="147.313" stroke-width="1" stroke="rgb(0,0,255)" />
</svg>
